<svg xmlns="http://www.w3.org/2000/svg" xmlns:xlink="http://www.w3.org/1999/xlink" width="1366" zoomAndPan="magnify" viewBox="0 0 1024.5 576" height="768" preserveAspectRatio="xMidYMid meet" version="1.0"><defs><clipPath id="777d3697d4"><path d="M 590.050781 0.140625 L 1023.996094 0.140625 L 1023.996094 575.859375 L 590.050781 575.859375 Z M 590.050781 0.140625 " clip-rule="nonzero"/></clipPath><clipPath id="0ad6ed2486"><path d="M 0 296.863281 L 165.296875 296.863281 L 165.296875 575.726562 L 0 575.726562 Z M 0 296.863281 " clip-rule="nonzero"/></clipPath></defs><g clip-path="url(#777d3697d4)"><path fill="#5382dd" d="M 1000.371094 575.800781 C 1008.285156 575.832031 1016.195312 575.136719 1023.996094 573.792969 L 1023.996094 0.171875 L 590.046875 0.171875 C 596.585938 2.492188 603.0625 4.960938 609.359375 7.875 C 625 15.113281 639.84375 25.464844 648.613281 40.300781 C 654.988281 51.089844 657.808594 63.679688 658.554688 76.191406 C 659.304688 88.703125 658.078125 101.238281 656.867188 113.714844 C 655.660156 126.1875 654.464844 138.726562 655.273438 151.234375 C 656.078125 163.738281 658.984375 176.320312 665.464844 187.050781 C 672.671875 198.988281 683.980469 208.0625 696.386719 214.429688 C 708.796875 220.800781 722.332031 224.644531 735.898438 227.875 C 749.46875 231.101562 763.195312 233.761719 776.5 237.957031 C 789.800781 242.148438 802.785156 247.964844 813.542969 256.839844 C 825.625 266.800781 834.480469 280.320312 840.289062 294.867188 C 846.09375 309.410156 848.96875 324.984375 850.367188 340.582031 C 853.164062 371.78125 850.175781 403.390625 854.582031 434.402344 C 859.175781 466.746094 872.058594 498.132812 893 523.210938 C 913.941406 548.289062 943.089844 566.785156 975.117188 573.246094 C 983.429688 574.921875 991.898438 575.761719 1000.371094 575.800781 Z M 1000.371094 575.800781 " fill-opacity="1" fill-rule="nonzero"/></g><g clip-path="url(#0ad6ed2486)"><path fill="#5382dd" d="M 26.558594 575.761719 L 4.785156 575.761719 C 4.46875 575.765625 4.160156 575.734375 3.851562 575.675781 C 3.542969 575.613281 3.242188 575.523438 2.953125 575.40625 C 2.660156 575.285156 2.386719 575.136719 2.125 574.964844 C 1.863281 574.789062 1.621094 574.589844 1.398438 574.367188 C 1.175781 574.148438 0.976562 573.90625 0.804688 573.644531 C 0.628906 573.382812 0.480469 573.105469 0.363281 572.816406 C 0.242188 572.523438 0.152344 572.226562 0.09375 571.917969 C 0.03125 571.609375 0.00390625 571.296875 0.00390625 570.984375 L 0.00390625 301.734375 C 0.00390625 301.417969 0.03125 301.105469 0.09375 300.800781 C 0.152344 300.492188 0.242188 300.191406 0.363281 299.902344 C 0.480469 299.609375 0.628906 299.335938 0.804688 299.074219 C 0.976562 298.8125 1.175781 298.570312 1.398438 298.347656 C 1.621094 298.125 1.863281 297.925781 2.125 297.753906 C 2.386719 297.578125 2.660156 297.429688 2.953125 297.3125 C 3.242188 297.191406 3.542969 297.101562 3.851562 297.042969 C 4.160156 296.980469 4.46875 296.953125 4.785156 296.953125 L 26.558594 296.953125 C 28.839844 296.953125 31.121094 297.007812 33.398438 297.121094 C 35.675781 297.234375 37.949219 297.402344 40.222656 297.625 C 42.492188 297.847656 44.753906 298.128906 47.011719 298.460938 C 49.269531 298.796875 51.515625 299.1875 53.753906 299.632812 C 55.992188 300.078125 58.21875 300.578125 60.429688 301.132812 C 62.644531 301.683594 64.839844 302.292969 67.023438 302.957031 C 69.207031 303.617188 71.375 304.332031 73.523438 305.101562 C 75.667969 305.871094 77.796875 306.691406 79.90625 307.566406 C 82.011719 308.4375 84.097656 309.363281 86.160156 310.335938 C 88.222656 311.3125 90.261719 312.339844 92.273438 313.414062 C 94.285156 314.488281 96.269531 315.613281 98.226562 316.785156 C 100.183594 317.960938 102.109375 319.179688 104.007812 320.445312 C 105.902344 321.714844 107.769531 323.027344 109.601562 324.386719 C 111.433594 325.746094 113.230469 327.148438 114.996094 328.597656 C 116.757812 330.042969 118.484375 331.535156 120.175781 333.066406 C 121.867188 334.597656 123.519531 336.171875 125.132812 337.785156 C 126.746094 339.398438 128.316406 341.050781 129.851562 342.738281 C 131.382812 344.429688 132.871094 346.15625 134.320312 347.921875 C 135.765625 349.683594 137.167969 351.480469 138.527344 353.316406 C 139.886719 355.148438 141.199219 357.011719 142.46875 358.910156 C 143.734375 360.804688 144.957031 362.734375 146.128906 364.691406 C 147.300781 366.648438 148.425781 368.632812 149.5 370.644531 C 150.578125 372.65625 151.601562 374.691406 152.578125 376.753906 C 153.554688 378.816406 154.476562 380.902344 155.351562 383.011719 C 156.222656 385.117188 157.042969 387.246094 157.8125 389.394531 C 158.582031 391.542969 159.296875 393.707031 159.960938 395.890625 C 160.621094 398.074219 161.230469 400.273438 161.785156 402.484375 C 162.339844 404.699219 162.839844 406.925781 163.285156 409.160156 C 163.730469 411.398438 164.117188 413.644531 164.453125 415.902344 C 164.789062 418.160156 165.066406 420.421875 165.292969 422.695312 C 165.515625 424.964844 165.683594 427.238281 165.792969 429.519531 C 165.90625 431.796875 165.960938 434.078125 165.960938 436.359375 C 165.960938 438.640625 165.90625 440.917969 165.792969 443.199219 C 165.683594 445.476562 165.515625 447.75 165.292969 450.023438 C 165.066406 452.292969 164.789062 454.554688 164.453125 456.8125 C 164.117188 459.070312 163.730469 461.316406 163.285156 463.554688 C 162.839844 465.792969 162.339844 468.015625 161.785156 470.230469 C 161.230469 472.445312 160.621094 474.640625 159.960938 476.824219 C 159.296875 479.007812 158.582031 481.175781 157.8125 483.320312 C 157.042969 485.46875 156.222656 487.597656 155.351562 489.707031 C 154.476562 491.8125 153.554688 493.898438 152.578125 495.960938 C 151.601562 498.023438 150.578125 500.0625 149.5 502.074219 C 148.425781 504.085938 147.300781 506.070312 146.128906 508.027344 C 144.957031 509.984375 143.734375 511.910156 142.46875 513.808594 C 141.199219 515.703125 139.886719 517.570312 138.527344 519.402344 C 137.167969 521.234375 135.765625 523.03125 134.320312 524.796875 C 132.871094 526.558594 131.382812 528.285156 129.851562 529.976562 C 128.316406 531.667969 126.746094 533.320312 125.132812 534.933594 C 123.519531 536.546875 121.867188 538.117188 120.175781 539.648438 C 118.484375 541.183594 116.757812 542.671875 114.996094 544.121094 C 113.230469 545.566406 111.433594 546.96875 109.601562 548.328125 C 107.769531 549.6875 105.902344 551 104.007812 552.269531 C 102.109375 553.535156 100.183594 554.757812 98.226562 555.929688 C 96.269531 557.101562 94.285156 558.226562 92.273438 559.300781 C 90.261719 560.378906 88.222656 561.402344 86.160156 562.378906 C 84.097656 563.355469 82.011719 564.277344 79.90625 565.152344 C 77.796875 566.023438 75.667969 566.84375 73.523438 567.613281 C 71.375 568.382812 69.207031 569.097656 67.023438 569.761719 C 64.839844 570.421875 62.644531 571.03125 60.429688 571.585938 C 58.21875 572.140625 55.992188 572.640625 53.753906 573.085938 C 51.515625 573.53125 49.269531 573.917969 47.011719 574.253906 C 44.753906 574.589844 42.492188 574.867188 40.222656 575.089844 C 37.949219 575.316406 35.675781 575.484375 33.398438 575.59375 C 31.121094 575.707031 28.839844 575.761719 26.558594 575.761719 Z M 26.558594 575.761719 " fill-opacity="1" fill-rule="nonzero"/></g></svg>