<svg xmlns="http://www.w3.org/2000/svg" xmlns:xlink="http://www.w3.org/1999/xlink" width="500" zoomAndPan="magnify" viewBox="0 0 375 374.999991" height="500" preserveAspectRatio="xMidYMid meet" version="1.0"><defs><g/><clipPath id="f583d610cd"><path d="M 51.773438 69.945312 L 323.273438 69.945312 L 323.273438 322 L 51.773438 322 Z M 51.773438 69.945312 " clip-rule="nonzero"/></clipPath><clipPath id="c7c445be96"><path d="M 308.226562 69.945312 L 66.773438 69.945312 C 62.792969 69.945312 58.976562 71.523438 56.164062 74.335938 C 53.351562 77.148438 51.773438 80.964844 51.773438 84.945312 L 51.773438 245.570312 C 51.773438 249.550781 53.351562 253.363281 56.164062 256.175781 C 58.976562 258.988281 62.792969 260.570312 66.773438 260.570312 L 93.503906 260.570312 C 97.480469 260.570312 101.296875 262.152344 104.109375 264.964844 C 106.921875 267.777344 108.503906 271.59375 108.503906 275.570312 L 108.503906 313.28125 C 108.503906 316.320312 110.144531 319.121094 112.796875 320.605469 C 115.449219 322.089844 118.695312 322.023438 121.285156 320.433594 L 205.980469 268.421875 C 214.339844 263.289062 223.957031 260.570312 233.761719 260.570312 L 308.226562 260.570312 C 312.203125 260.570312 316.019531 258.988281 318.832031 256.175781 C 321.644531 253.363281 323.226562 249.550781 323.226562 245.570312 L 323.226562 84.945312 C 323.226562 80.964844 321.644531 77.148438 318.832031 74.335938 C 316.019531 71.523438 312.203125 69.945312 308.226562 69.945312 Z M 308.226562 69.945312 " clip-rule="nonzero"/></clipPath></defs><rect x="-37.5" width="450" fill="#ffffff" y="-37.499999" height="449.999989" fill-opacity="1"/><rect x="-37.5" width="450" fill="#ffffff" y="-37.499999" height="449.999989" fill-opacity="1"/><rect x="-37.5" width="450" fill="#5382dd" y="-37.499999" height="449.999989" fill-opacity="1"/><g clip-path="url(#f583d610cd)"><g clip-path="url(#c7c445be96)"><path stroke-linecap="butt" transform="matrix(0.75, 0, 0, 0.75, 51.771688, 69.943757)" fill="none" stroke-linejoin="miter" d="M 341.939856 0.00207399 L 20.002335 0.00207399 C 14.695043 0.00207399 9.606501 2.106241 5.8565 5.856241 C 2.1065 9.606241 0.00233333 14.694783 0.00233333 20.002075 L 0.00233333 234.168756 C 0.00233333 239.476048 2.1065 244.559382 5.8565 248.309382 C 9.606501 252.059382 14.695043 254.168757 20.002335 254.168757 L 55.642962 254.168757 C 60.945046 254.168757 66.033588 256.278132 69.783588 260.028133 C 73.533588 263.778133 75.642963 268.866675 75.642963 274.168759 L 75.642963 324.450012 C 75.642963 328.502096 77.830463 332.236471 81.366922 334.215638 C 84.903381 336.194804 89.231506 336.106263 92.684631 333.986471 L 205.611722 264.637508 C 216.757556 257.793758 229.580473 254.168757 242.653391 254.168757 L 341.939856 254.168757 C 347.241939 254.168757 352.330481 252.059382 356.080482 248.309382 C 359.830482 244.559382 361.939857 239.476048 361.939857 234.168756 L 361.939857 20.002075 C 361.939857 14.694783 359.830482 9.606241 356.080482 5.856241 C 352.330481 2.106241 347.241939 0.00207399 341.939856 0.00207399 Z M 341.939856 0.00207399 " stroke="#d1d2d8" stroke-width="24" stroke-opacity="1" stroke-miterlimit="4"/></g></g><g fill="#d1d2d8" fill-opacity="1"><g transform="translate(108.455013, 209.790928)"><g><path d="M 78.921875 -19.109375 L 78.921875 0 L 8.734375 0 L 8.734375 -87.40625 L 77.296875 -87.40625 L 77.296875 -68.3125 L 33.21875 -68.3125 L 33.21875 -53.578125 L 72.046875 -53.578125 L 72.046875 -35.09375 L 33.21875 -35.09375 L 33.21875 -19.109375 Z M 78.921875 -19.109375 "/></g></g></g><g fill="#d1d2d8" fill-opacity="1"><g transform="translate(181.738466, 209.790928)"><g><path d="M 82.671875 -19.609375 L 82.671875 0 L 4.375 0 L 4.375 -15.484375 L 48.453125 -67.8125 L 5.5 -67.8125 L 5.5 -87.40625 L 80.796875 -87.40625 L 80.796875 -71.921875 L 36.71875 -19.609375 Z M 82.671875 -19.609375 "/></g></g></g></svg>