<?xml version="1.0" standalone="no"?>
<!DOCTYPE svg PUBLIC "-//W3C//DTD SVG 20010904//EN"
 "http://www.w3.org/TR/2001/REC-SVG-20010904/DTD/svg10.dtd">
<svg version="1.0" xmlns="http://www.w3.org/2000/svg"
 width="260.000000pt" height="260.000000pt" viewBox="0 0 260.000000 260.000000"
 preserveAspectRatio="xMidYMid meet">
<metadata>
Created by potrace 1.14, written by Peter Selinger 2001-2017
</metadata>
<g transform="translate(0.000000,260.000000) scale(0.100000,-0.100000)"
fill="#000000" stroke="none">
<path d="M1355 2496 c-14 -14 -25 -35 -25 -48 -1 -34 -1 -366 -1 -414 1 -26 9
-51 20 -65 l19 -24 258 -1 258 -2 28 28 28 28 0 234 c0 214 -2 235 -20 258
l-19 25 -260 3 -261 3 -25 -25z"/>
<path d="M723 1888 c-53 -14 -57 -32 -58 -273 -1 -121 3 -232 7 -246 17 -49
40 -53 297 -55 213 -1 239 1 267 18 18 10 34 27 37 38 3 10 4 123 3 250 l-1
231 -25 19 c-14 11 -32 20 -40 21 -57 5 -464 3 -487 -3z"/>
<path d="M1394 1892 c-12 -2 -31 -14 -43 -26 -22 -23 -22 -31 -23 -258 0 -248
4 -270 47 -285 11 -4 126 -8 255 -8 255 -2 282 3 300 51 13 33 13 445 0 478
-17 46 -39 50 -285 50 -126 1 -240 0 -251 -2z"/>
<path d="M2053 1892 c-13 -2 -32 -15 -43 -29 -19 -24 -20 -40 -20 -259 0 -232
0 -233 24 -261 l24 -28 257 0 257 0 24 28 c24 28 24 29 24 262 0 231 0 234
-24 261 l-23 28 -239 1 c-132 0 -249 -1 -261 -3z"/>
<path d="M25 1245 l-25 -24 0 -228 c0 -125 3 -238 6 -251 13 -46 43 -51 300
-51 256 1 285 6 298 53 3 12 6 124 6 249 l0 228 -26 24 -27 25 -254 0 -254 0
-24 -25z"/>
<path d="M691 1243 l-27 -28 1 -225 c1 -124 5 -235 9 -248 15 -45 44 -50 302
-51 237 0 240 0 269 24 l30 23 1 237 1 237 -24 29 -25 29 -255 0 -255 0 -27
-27z"/>
<path d="M1368 1253 c-15 -9 -29 -26 -32 -37 -3 -12 -6 -124 -6 -249 l0 -228
25 -24 24 -25 256 0 256 0 24 25 25 24 0 235 c0 234 0 235 -24 263 l-24 28
-249 2 c-216 2 -251 0 -275 -14z"/>
<path d="M712 639 c-42 -16 -49 -57 -47 -298 l1 -223 27 -24 c28 -24 30 -24
270 -24 133 0 251 3 263 6 47 13 52 42 51 292 l-2 234 -28 23 c-27 24 -29 24
-270 23 -133 0 -252 -4 -265 -9z"/>
</g>
</svg>
