<svg xmlns="http://www.w3.org/2000/svg" viewBox="0 0 372.83 118.16"><defs><style>.cls-1{fill:#ccc;}.cls-2{fill:#ba0c2f;}</style></defs><g id="Layer_2" data-name="Layer 2"><g id="NMI"><g id="NMI_Black" data-name="NMI Black"><rect x="40.68" width="18.65" height="17.66" rx="2.57"/><rect class="cls-1" x="40.68" y="19.2" width="18.65" height="17.66" rx="2.57"/><rect x="40.73" y="38.41" width="18.65" height="17.66" rx="2.57"/><rect class="cls-2" x="60.96" y="19.2" width="18.65" height="17.66" rx="2.57"/><rect class="cls-2" x="20.41" y="19.2" width="18.65" height="17.66" rx="2.57"/><rect class="cls-1" x="20.41" y="38.28" width="18.65" height="17.66" rx="2.57"/><rect y="38.28" width="18.65" height="17.66" rx="2.57"/><rect class="cls-2" x="20.41" y="57.36" width="18.65" height="17.66" rx="2.57"/><path d="M73.55,55V85.16h-5V45.7h3.89L96.89,76.44V45.76h5v39.4H97.67Z"/><path d="M138.13,80.72v4.44H111.34V45.7h26.29v4.45H116.34V62.93h18.51V67.1H116.34V80.72Z"/><path d="M159.42,45.92h4.72l5.22,13.73,5.28-13.73h4.73L172.53,63.1l6.78,16.28L192.65,45.7h5.45L181.59,85.16h-4.34l-7.83-18.62-7.89,18.62h-4.34L140.74,45.7h5.39l13.4,33.68,6.72-16.28Z"/><path class="cls-2" d="M234.83,85.16V59L224.66,78.49h-4.17L210.32,59V85.16h-7.67V45.7h8.23l11.67,22.46L234.33,45.7h8.17V85.16Z"/><path class="cls-2" d="M278.13,78.44v6.72h-27.4V45.7h26.9v6.73H258.4v9.5H275v6.23H258.4V78.44Z"/><path class="cls-2" d="M284.13,85.16V45.7h14.34a21.34,21.34,0,0,1,8.47,1.56A17.39,17.39,0,0,1,313,51.48a17.57,17.57,0,0,1,3.67,6.25,23.68,23.68,0,0,1,1.22,7.65,23.05,23.05,0,0,1-1.36,8.14A17.16,17.16,0,0,1,306.5,83.74a21.59,21.59,0,0,1-8,1.42Zm26.06-19.78a16.82,16.82,0,0,0-.77-5.23A11.74,11.74,0,0,0,307.14,56a10.09,10.09,0,0,0-3.7-2.67,12.44,12.44,0,0,0-5-.94H291.8v26h6.67a12.14,12.14,0,0,0,5-1,10.53,10.53,0,0,0,3.67-2.75,12.34,12.34,0,0,0,2.25-4.14A16.62,16.62,0,0,0,310.19,65.38Z"/><path class="cls-2" d="M323.92,85.16V45.7h7.67V85.16Z"/><path class="cls-2" d="M351,45.7h6.78l15,39.46h-7.89l-3.67-9.84H347.49l-3.62,9.84H336Zm8.84,24.23-5.45-15.5-5.67,15.5Z"/><path d="M68.94,118V94.18h2.35V118Z"/><path d="M79.59,98.54V118H77.25V94.18h1.8L94.79,114V94.22h2.35V118h-2Z"/><path d="M117,98.64a7.1,7.1,0,0,0-2.68-1.84,9.7,9.7,0,0,0-3.81-.71,7.19,7.19,0,0,0-4.59,1.19,4,4,0,0,0-1.44,3.23,3.64,3.64,0,0,0,.38,1.76,3.47,3.47,0,0,0,1.19,1.19,8.92,8.92,0,0,0,2.06.87c.84.25,1.83.49,3,.74a31.91,31.91,0,0,1,3.43.9,9.76,9.76,0,0,1,2.59,1.26,5.16,5.16,0,0,1,1.64,1.82,5.68,5.68,0,0,1,.57,2.68,6.11,6.11,0,0,1-.63,2.85,5.81,5.81,0,0,1-1.78,2,7.88,7.88,0,0,1-2.71,1.18,14.34,14.34,0,0,1-3.45.39,14.17,14.17,0,0,1-9.54-3.45l1.17-1.91a8.89,8.89,0,0,0,1.52,1.27,10.34,10.34,0,0,0,2,1.06,12.66,12.66,0,0,0,2.33.7,12.85,12.85,0,0,0,2.61.25,8.16,8.16,0,0,0,4.43-1,3.44,3.44,0,0,0,1.6-3.1,3.55,3.55,0,0,0-.46-1.85A3.86,3.86,0,0,0,115,108.8a9.28,9.28,0,0,0-2.25-1c-.89-.27-1.93-.54-3.11-.81s-2.34-.59-3.28-.9A8.66,8.66,0,0,1,104,105a4.69,4.69,0,0,1-1.46-1.69,5.54,5.54,0,0,1-.48-2.43,6.57,6.57,0,0,1,.62-2.93,5.75,5.75,0,0,1,1.76-2.15,8.41,8.41,0,0,1,2.67-1.3,12.2,12.2,0,0,1,3.42-.45,11.67,11.67,0,0,1,4.24.72,11.27,11.27,0,0,1,3.36,2Z"/><path d="M140.3,96.26h-8.47V118h-2.35V96.26H121V94.18H140.3Z"/><path d="M143.85,118V94.18h2.34V118Z"/><path d="M169,96.26h-8.47V118h-2.35V96.26h-8.47V94.18H169Z"/><path d="M182.22,116a7.44,7.44,0,0,0,3.74-.86,6.71,6.71,0,0,0,2.37-2.24,9.06,9.06,0,0,0,1.24-3.17,17.88,17.88,0,0,0,.35-3.58v-12h2.35v12a18.76,18.76,0,0,1-.54,4.57,10.91,10.91,0,0,1-1.72,3.8,8.61,8.61,0,0,1-3.1,2.62,10.25,10.25,0,0,1-4.65,1,9.89,9.89,0,0,1-4.74-1,8.55,8.55,0,0,1-3.1-2.69,10.9,10.9,0,0,1-1.67-3.82,19,19,0,0,1-.51-4.42v-12h2.31v12a18.29,18.29,0,0,0,.37,3.65,9.29,9.29,0,0,0,1.26,3.15,6.77,6.77,0,0,0,2.36,2.21A7.34,7.34,0,0,0,182.22,116Z"/><path d="M214.74,96.26h-8.48V118h-2.34V96.26h-8.47V94.18h19.29Z"/><path d="M234.26,115.88V118h-16V94.18H234v2.08H220.63v8.57h11.62v2H220.63v9.07Z"/></g></g></g></svg>