<svg version="1.0" preserveAspectRatio="xMidYMid meet" viewBox="69 130.499996868 219.75 112.4999973" zoomAndPan="magnify" xmlns:xlink="http://www.w3.org/1999/xlink" xmlns="http://www.w3.org/2000/svg" style="max-height: 500px" width="219.75" height="112.4999973"><defs><g/><clipPath id="7e23684094"><path clip-rule="nonzero" d="M 223.570312 133.601562 L 284 133.601562 L 284 190 L 223.570312 190 Z M 223.570312 133.601562"/></clipPath><clipPath id="a5dd32eb62"><path clip-rule="nonzero" d="M 280.957031 133.601562 L 226.570312 133.601562 C 224.914062 133.601562 223.570312 134.945312 223.570312 136.601562 L 223.570312 173.007812 C 223.570312 174.664062 224.914062 176.007812 226.570312 176.007812 L 233.191406 176.007812 C 234.847656 176.007812 236.191406 177.351562 236.191406 179.007812 L 236.191406 188.070312 C 236.191406 188.679688 236.519531 189.238281 237.050781 189.535156 C 237.578125 189.832031 238.230469 189.816406 238.746094 189.5 L 258.164062 177.578125 C 259.832031 176.550781 261.757812 176.007812 263.71875 176.007812 L 280.957031 176.007812 C 282.613281 176.007812 283.957031 174.664062 283.957031 173.007812 L 283.957031 136.601562 C 283.957031 134.945312 282.613281 133.601562 280.957031 133.601562 Z M 280.957031 133.601562"/></clipPath></defs><g fill-opacity="1" fill="#d1d2d8"><g transform="translate(70.715389, 226.233817)"><g><path d="M 20.53125 0.90625 C 16.851562 0.90625 13.28125 0.453125 9.8125 -0.453125 C 6.34375 -1.359375 3.523438 -2.570312 1.359375 -4.09375 L 5.59375 -13.578125 C 7.625 -12.234375 9.984375 -11.148438 12.671875 -10.328125 C 15.359375 -9.503906 18 -9.09375 20.59375 -9.09375 C 25.539062 -9.09375 28.015625 -10.328125 28.015625 -12.796875 C 28.015625 -14.097656 27.304688 -15.0625 25.890625 -15.6875 C 24.484375 -16.320312 22.222656 -16.984375 19.109375 -17.671875 C 15.679688 -18.410156 12.816406 -19.203125 10.515625 -20.046875 C 8.222656 -20.890625 6.253906 -22.242188 4.609375 -24.109375 C 2.960938 -25.972656 2.140625 -28.484375 2.140625 -31.640625 C 2.140625 -34.421875 2.894531 -36.925781 4.40625 -39.15625 C 5.925781 -41.382812 8.191406 -43.148438 11.203125 -44.453125 C 14.210938 -45.753906 17.910156 -46.40625 22.296875 -46.40625 C 25.285156 -46.40625 28.226562 -46.066406 31.125 -45.390625 C 34.03125 -44.722656 36.585938 -43.738281 38.796875 -42.4375 L 34.828125 -32.875 C 30.492188 -35.21875 26.289062 -36.390625 22.21875 -36.390625 C 19.664062 -36.390625 17.800781 -36.007812 16.625 -35.25 C 15.457031 -34.488281 14.875 -33.503906 14.875 -32.296875 C 14.875 -31.085938 15.566406 -30.175781 16.953125 -29.5625 C 18.347656 -28.957031 20.582031 -28.332031 23.65625 -27.6875 C 27.125 -26.945312 29.992188 -26.15625 32.265625 -25.3125 C 34.535156 -24.46875 36.503906 -23.125 38.171875 -21.28125 C 39.847656 -19.4375 40.6875 -16.9375 40.6875 -13.78125 C 40.6875 -11.050781 39.925781 -8.578125 38.40625 -6.359375 C 36.882812 -4.148438 34.609375 -2.382812 31.578125 -1.0625 C 28.546875 0.25 24.863281 0.90625 20.53125 0.90625 Z M 20.53125 0.90625"/></g></g></g><g fill-opacity="1" fill="#d1d2d8"><g transform="translate(107.240774, 226.233817)"><g><path d="M 26.125 -35.8125 C 29.332031 -35.8125 32.242188 -35.0625 34.859375 -33.5625 C 37.484375 -32.070312 39.5625 -29.945312 41.09375 -27.1875 C 42.632812 -24.4375 43.40625 -21.242188 43.40625 -17.609375 C 43.40625 -13.972656 42.632812 -10.78125 41.09375 -8.03125 C 39.5625 -5.28125 37.484375 -3.15625 34.859375 -1.65625 C 32.242188 -0.164062 29.332031 0.578125 26.125 0.578125 C 22.007812 0.578125 18.738281 -0.65625 16.3125 -3.125 L 16.3125 12.609375 L 3.96875 12.609375 L 3.96875 -35.21875 L 15.71875 -35.21875 L 15.71875 -31.71875 C 18.019531 -34.445312 21.488281 -35.8125 26.125 -35.8125 Z M 23.53125 -9.234375 C 25.695312 -9.234375 27.472656 -9.976562 28.859375 -11.46875 C 30.242188 -12.96875 30.9375 -15.015625 30.9375 -17.609375 C 30.9375 -20.210938 30.242188 -22.257812 28.859375 -23.75 C 27.472656 -25.25 25.695312 -26 23.53125 -26 C 21.363281 -26 19.582031 -25.25 18.1875 -23.75 C 16.800781 -22.257812 16.109375 -20.210938 16.109375 -17.609375 C 16.109375 -15.015625 16.800781 -12.96875 18.1875 -11.46875 C 19.582031 -9.976562 21.363281 -9.234375 23.53125 -9.234375 Z M 23.53125 -9.234375"/></g></g></g><g fill-opacity="1" fill="#d1d2d8"><g transform="translate(146.885746, 226.233817)"><g><path d="M 39.96875 -17.546875 C 39.96875 -17.460938 39.898438 -16.441406 39.765625 -14.484375 L 14.171875 -14.484375 C 14.691406 -12.671875 15.695312 -11.273438 17.1875 -10.296875 C 18.6875 -9.328125 20.5625 -8.84375 22.8125 -8.84375 C 24.5 -8.84375 25.957031 -9.078125 27.1875 -9.546875 C 28.425781 -10.023438 29.675781 -10.804688 30.9375 -11.890625 L 37.4375 -5.140625 C 34.007812 -1.328125 29.003906 0.578125 22.421875 0.578125 C 18.304688 0.578125 14.6875 -0.195312 11.5625 -1.75 C 8.445312 -3.3125 6.03125 -5.476562 4.3125 -8.25 C 2.601562 -11.019531 1.75 -14.160156 1.75 -17.671875 C 1.75 -21.140625 2.582031 -24.25 4.25 -27 C 5.925781 -29.75 8.234375 -31.90625 11.171875 -33.46875 C 14.117188 -35.03125 17.4375 -35.8125 21.125 -35.8125 C 24.632812 -35.8125 27.816406 -35.082031 30.671875 -33.625 C 33.535156 -32.175781 35.800781 -30.078125 37.46875 -27.328125 C 39.132812 -24.578125 39.96875 -21.316406 39.96875 -17.546875 Z M 21.1875 -27.03125 C 19.28125 -27.03125 17.6875 -26.488281 16.40625 -25.40625 C 15.125 -24.320312 14.3125 -22.847656 13.96875 -20.984375 L 28.390625 -20.984375 C 28.046875 -22.847656 27.234375 -24.320312 25.953125 -25.40625 C 24.679688 -26.488281 23.09375 -27.03125 21.1875 -27.03125 Z M 21.1875 -27.03125"/></g></g></g><g fill-opacity="1" fill="#d1d2d8"><g transform="translate(183.086162, 226.233817)"><g><path d="M 18.96875 -35.8125 C 24.820312 -35.8125 29.285156 -34.476562 32.359375 -31.8125 C 35.429688 -29.144531 36.96875 -25.0625 36.96875 -19.5625 L 36.96875 0 L 25.46875 0 L 25.46875 -4.546875 C 23.695312 -1.128906 20.234375 0.578125 15.078125 0.578125 C 12.347656 0.578125 9.984375 0.101562 7.984375 -0.84375 C 5.992188 -1.800781 4.488281 -3.085938 3.46875 -4.703125 C 2.457031 -6.328125 1.953125 -8.179688 1.953125 -10.265625 C 1.953125 -13.597656 3.226562 -16.1875 5.78125 -18.03125 C 8.34375 -19.875 12.285156 -20.796875 17.609375 -20.796875 L 24.625 -20.796875 C 24.40625 -24.523438 21.914062 -26.390625 17.15625 -26.390625 C 15.46875 -26.390625 13.753906 -26.117188 12.015625 -25.578125 C 10.285156 -25.035156 8.816406 -24.285156 7.609375 -23.328125 L 3.4375 -31.71875 C 5.394531 -33.007812 7.769531 -34.015625 10.5625 -34.734375 C 13.351562 -35.453125 16.15625 -35.8125 18.96875 -35.8125 Z M 18.515625 -7.21875 C 19.953125 -7.21875 21.210938 -7.5625 22.296875 -8.25 C 23.378906 -8.945312 24.15625 -9.96875 24.625 -11.3125 L 24.625 -14.359375 L 19.296875 -14.359375 C 15.703125 -14.359375 13.90625 -13.164062 13.90625 -10.78125 C 13.90625 -9.695312 14.316406 -8.832031 15.140625 -8.1875 C 15.960938 -7.539062 17.085938 -7.21875 18.515625 -7.21875 Z M 18.515625 -7.21875"/></g></g></g><g fill-opacity="1" fill="#d1d2d8"><g transform="translate(218.376699, 226.233817)"><g><path d="M 19.953125 -12.34375 L 16.3125 -8.640625 L 16.3125 0 L 3.96875 0 L 3.96875 -48.21875 L 16.3125 -48.21875 L 16.3125 -22.9375 L 28.921875 -35.21875 L 43.546875 -35.21875 L 28.921875 -20.140625 L 44.78125 0 L 29.828125 0 Z M 19.953125 -12.34375"/></g></g></g><g clip-path="url(#7e23684094)"><g clip-path="url(#a5dd32eb62)"><path stroke-miterlimit="4" stroke-opacity="1" stroke-width="6" stroke="#d1d2d8" d="M 76.515677 0.000173964 L 4.000052 0.000173964 C 1.791718 0.000173964 0.0000515748 1.791841 0.0000515748 4.000174 L 0.0000515748 52.541841 C 0.0000515748 54.750174 1.791718 56.541841 4.000052 56.541841 L 12.828177 56.541841 C 15.03651 56.541841 16.828177 58.333507 16.828177 60.541841 L 16.828177 72.625174 C 16.828177 73.437674 17.265677 74.182466 17.97401 74.578299 C 18.677135 74.974132 19.546927 74.953299 20.234427 74.531424 L 46.125052 58.635591 C 48.34901 57.265799 50.916718 56.541841 53.531302 56.541841 L 76.515677 56.541841 C 78.72401 56.541841 80.515677 54.750174 80.515677 52.541841 L 80.515677 4.000174 C 80.515677 1.791841 78.72401 0.000173964 76.515677 0.000173964 Z M 76.515677 0.000173964" stroke-linejoin="miter" fill="none" transform="matrix(0.75, 0, 0, 0.75, 223.570274, 133.601432)" stroke-linecap="butt"/></g></g><g fill-opacity="1" fill="#d1d2d8"><g transform="translate(236.179485, 164.711327)"><g><path d="M 17.5625 -4.25 L 17.5625 0 L 1.9375 0 L 1.9375 -19.453125 L 17.203125 -19.453125 L 17.203125 -15.203125 L 7.390625 -15.203125 L 7.390625 -11.921875 L 16.03125 -11.921875 L 16.03125 -7.8125 L 7.390625 -7.8125 L 7.390625 -4.25 Z M 17.5625 -4.25"/></g></g></g><g fill-opacity="1" fill="#d1d2d8"><g transform="translate(252.481781, 164.711327)"><g><path d="M 18.390625 -4.359375 L 18.390625 0 L 0.96875 0 L 0.96875 -3.4375 L 10.78125 -15.078125 L 1.21875 -15.078125 L 1.21875 -19.453125 L 17.96875 -19.453125 L 17.96875 -16 L 8.171875 -4.359375 Z M 18.390625 -4.359375"/></g></g></g></svg>