<svg version="1.0" preserveAspectRatio="xMidYMid meet" viewBox="75 128.249996922 224.25 94.49999773200001" zoomAndPan="magnify" xmlns:xlink="http://www.w3.org/1999/xlink" xmlns="http://www.w3.org/2000/svg" style="max-height: 500px" width="224.25" height="94.49999773200001"><defs><g/><clipPath id="55180e7d9c"><path clip-rule="nonzero" d="M 240.28125 132.472656 L 295 132.472656 L 295 181.972656 L 240.28125 181.972656 Z M 240.28125 132.472656"/></clipPath><clipPath id="b46be2fef1"><path clip-rule="nonzero" d="M 240.265625 181.96875 L 252.566406 181.96875 L 252.566406 190.816406 L 240.265625 190.816406 Z M 240.265625 181.96875"/></clipPath><clipPath id="dcc9deae58"><path clip-rule="nonzero" d="M 246.425781 141.375 L 288.832031 141.375 L 288.832031 165.875 L 246.425781 165.875 Z M 246.425781 141.375"/></clipPath></defs><g clip-path="url(#55180e7d9c)"><path fill-rule="nonzero" fill-opacity="1" d="M 288.453125 132.480469 L 246.792969 132.480469 C 246.367188 132.480469 245.941406 132.523438 245.523438 132.605469 C 245.105469 132.691406 244.699219 132.8125 244.304688 132.976562 C 243.90625 133.140625 243.53125 133.34375 243.179688 133.578125 C 242.824219 133.816406 242.492188 134.085938 242.191406 134.390625 C 241.890625 134.691406 241.621094 135.019531 241.382812 135.375 C 241.144531 135.730469 240.945312 136.105469 240.78125 136.5 C 240.617188 136.894531 240.492188 137.300781 240.410156 137.71875 C 240.324219 138.140625 240.285156 138.5625 240.28125 138.988281 L 240.28125 180.652344 C 240.285156 180.914062 240.355469 181.15625 240.503906 181.375 C 240.648438 181.59375 240.84375 181.753906 241.085938 181.851562 C 241.332031 181.953125 241.582031 181.976562 241.839844 181.925781 C 242.097656 181.875 242.320312 181.757812 242.503906 181.570312 L 252.539062 171.539062 L 288.453125 171.539062 C 288.878906 171.535156 289.304688 171.496094 289.722656 171.410156 C 290.140625 171.328125 290.546875 171.203125 290.941406 171.039062 C 291.339844 170.875 291.710938 170.675781 292.066406 170.4375 C 292.421875 170.199219 292.75 169.929688 293.054688 169.628906 C 293.355469 169.324219 293.625 168.996094 293.863281 168.640625 C 294.101562 168.285156 294.300781 167.914062 294.464844 167.515625 C 294.628906 167.121094 294.753906 166.714844 294.835938 166.296875 C 294.921875 165.878906 294.960938 165.453125 294.960938 165.027344 L 294.960938 138.988281 C 294.960938 138.5625 294.921875 138.140625 294.835938 137.71875 C 294.753906 137.300781 294.628906 136.894531 294.464844 136.5 C 294.300781 136.105469 294.101562 135.730469 293.863281 135.375 C 293.625 135.019531 293.355469 134.691406 293.054688 134.390625 C 292.75 134.085938 292.421875 133.816406 292.066406 133.578125 C 291.710938 133.34375 291.339844 133.140625 290.941406 132.976562 C 290.546875 132.8125 290.140625 132.691406 289.722656 132.605469 C 289.304688 132.523438 288.878906 132.480469 288.453125 132.480469 Z M 292.359375 165.027344 C 292.359375 165.546875 292.257812 166.042969 292.0625 166.523438 C 291.863281 167 291.578125 167.421875 291.214844 167.789062 C 290.847656 168.152344 290.425781 168.4375 289.949219 168.636719 C 289.46875 168.832031 288.972656 168.933594 288.453125 168.933594 L 252 168.933594 C 251.640625 168.933594 251.332031 169.058594 251.078125 169.316406 L 242.886719 177.507812 L 242.886719 138.988281 C 242.886719 138.472656 242.988281 137.972656 243.183594 137.496094 C 243.382812 137.015625 243.667969 136.59375 244.03125 136.230469 C 244.398438 135.863281 244.820312 135.582031 245.296875 135.382812 C 245.777344 135.183594 246.273438 135.085938 246.792969 135.085938 L 288.453125 135.085938 C 288.972656 135.085938 289.46875 135.183594 289.949219 135.382812 C 290.425781 135.582031 290.847656 135.863281 291.214844 136.230469 C 291.578125 136.59375 291.863281 137.015625 292.0625 137.496094 C 292.257812 137.972656 292.359375 138.472656 292.359375 138.988281 Z M 284.546875 144.199219 C 284.546875 144.371094 284.515625 144.535156 284.449219 144.695312 C 284.382812 144.855469 284.289062 144.996094 284.167969 145.117188 C 284.042969 145.238281 283.902344 145.335938 283.742188 145.398438 C 283.585938 145.464844 283.417969 145.5 283.246094 145.5 L 252 145.5 C 251.828125 145.5 251.660156 145.464844 251.503906 145.398438 C 251.34375 145.335938 251.203125 145.238281 251.078125 145.117188 C 250.957031 144.996094 250.863281 144.855469 250.796875 144.695312 C 250.730469 144.535156 250.699219 144.371094 250.699219 144.199219 C 250.699219 144.023438 250.730469 143.859375 250.796875 143.699219 C 250.863281 143.539062 250.957031 143.398438 251.078125 143.277344 C 251.203125 143.15625 251.34375 143.058594 251.503906 142.996094 C 251.660156 142.929688 251.828125 142.894531 252 142.894531 L 283.246094 142.894531 C 283.417969 142.894531 283.585938 142.929688 283.742188 142.996094 C 283.902344 143.058594 284.042969 143.15625 284.167969 143.277344 C 284.289062 143.398438 284.382812 143.539062 284.449219 143.699219 C 284.515625 143.859375 284.546875 144.023438 284.546875 144.199219 Z M 284.546875 152.007812 C 284.546875 152.179688 284.515625 152.347656 284.449219 152.507812 C 284.382812 152.667969 284.289062 152.808594 284.167969 152.929688 C 284.042969 153.050781 283.902344 153.144531 283.742188 153.210938 C 283.585938 153.277344 283.417969 153.3125 283.246094 153.3125 L 252 153.3125 C 251.828125 153.3125 251.660156 153.277344 251.503906 153.210938 C 251.34375 153.144531 251.203125 153.050781 251.078125 152.929688 C 250.957031 152.808594 250.863281 152.667969 250.796875 152.507812 C 250.730469 152.347656 250.699219 152.179688 250.699219 152.007812 C 250.699219 151.835938 250.730469 151.671875 250.796875 151.511719 C 250.863281 151.351562 250.957031 151.210938 251.078125 151.089844 C 251.203125 150.964844 251.34375 150.871094 251.503906 150.804688 C 251.660156 150.738281 251.828125 150.707031 252 150.707031 L 283.246094 150.707031 C 283.417969 150.707031 283.585938 150.738281 283.742188 150.804688 C 283.902344 150.871094 284.042969 150.964844 284.167969 151.085938 C 284.289062 151.210938 284.382812 151.351562 284.449219 151.511719 C 284.515625 151.667969 284.546875 151.835938 284.546875 152.007812 Z M 284.546875 159.820312 C 284.546875 159.992188 284.515625 160.160156 284.449219 160.320312 C 284.382812 160.476562 284.289062 160.617188 284.167969 160.742188 C 284.042969 160.863281 283.902344 160.957031 283.742188 161.023438 C 283.585938 161.089844 283.417969 161.121094 283.246094 161.121094 L 252 161.121094 C 251.828125 161.121094 251.660156 161.089844 251.503906 161.023438 C 251.34375 160.957031 251.203125 160.863281 251.078125 160.742188 C 250.957031 160.617188 250.863281 160.476562 250.796875 160.316406 C 250.730469 160.160156 250.699219 159.992188 250.699219 159.820312 C 250.699219 159.648438 250.730469 159.480469 250.796875 159.320312 C 250.863281 159.164062 250.957031 159.023438 251.078125 158.898438 C 251.203125 158.777344 251.34375 158.683594 251.503906 158.617188 C 251.660156 158.550781 251.828125 158.519531 252 158.519531 L 283.246094 158.519531 C 283.417969 158.519531 283.585938 158.550781 283.742188 158.617188 C 283.902344 158.683594 284.042969 158.777344 284.167969 158.898438 C 284.289062 159.019531 284.382812 159.164062 284.449219 159.320312 C 284.515625 159.480469 284.546875 159.648438 284.546875 159.820312 Z M 284.546875 159.820312" fill="#5382dd"/></g><g clip-path="url(#b46be2fef1)"><path fill-rule="nonzero" fill-opacity="1" d="M 240.265625 181.96875 L 252.574219 181.96875 L 252.574219 190.816406 L 240.265625 190.816406 Z M 240.265625 181.96875" fill="#000000"/></g><g clip-path="url(#dcc9deae58)"><path fill-rule="nonzero" fill-opacity="1" d="M 246.425781 141.375 L 288.824219 141.375 L 288.824219 165.875 L 246.425781 165.875 Z M 246.425781 141.375" fill="#d1d2d8"/></g><g fill-opacity="1" fill="#5382dd"><g transform="translate(76.449904, 202.961158)"><g><path d="M 20.53125 0.90625 C 16.851562 0.90625 13.28125 0.453125 9.8125 -0.453125 C 6.34375 -1.359375 3.523438 -2.570312 1.359375 -4.09375 L 5.59375 -13.578125 C 7.625 -12.234375 9.984375 -11.148438 12.671875 -10.328125 C 15.359375 -9.503906 18 -9.09375 20.59375 -9.09375 C 25.539062 -9.09375 28.015625 -10.328125 28.015625 -12.796875 C 28.015625 -14.097656 27.304688 -15.0625 25.890625 -15.6875 C 24.484375 -16.320312 22.222656 -16.984375 19.109375 -17.671875 C 15.679688 -18.410156 12.816406 -19.203125 10.515625 -20.046875 C 8.222656 -20.890625 6.253906 -22.242188 4.609375 -24.109375 C 2.960938 -25.972656 2.140625 -28.484375 2.140625 -31.640625 C 2.140625 -34.421875 2.894531 -36.925781 4.40625 -39.15625 C 5.925781 -41.382812 8.191406 -43.148438 11.203125 -44.453125 C 14.210938 -45.753906 17.910156 -46.40625 22.296875 -46.40625 C 25.285156 -46.40625 28.226562 -46.066406 31.125 -45.390625 C 34.03125 -44.722656 36.585938 -43.738281 38.796875 -42.4375 L 34.828125 -32.875 C 30.492188 -35.21875 26.289062 -36.390625 22.21875 -36.390625 C 19.664062 -36.390625 17.800781 -36.007812 16.625 -35.25 C 15.457031 -34.488281 14.875 -33.503906 14.875 -32.296875 C 14.875 -31.085938 15.566406 -30.175781 16.953125 -29.5625 C 18.347656 -28.957031 20.582031 -28.332031 23.65625 -27.6875 C 27.125 -26.945312 29.992188 -26.15625 32.265625 -25.3125 C 34.535156 -24.46875 36.503906 -23.125 38.171875 -21.28125 C 39.847656 -19.4375 40.6875 -16.9375 40.6875 -13.78125 C 40.6875 -11.050781 39.925781 -8.578125 38.40625 -6.359375 C 36.882812 -4.148438 34.609375 -2.382812 31.578125 -1.0625 C 28.546875 0.25 24.863281 0.90625 20.53125 0.90625 Z M 20.53125 0.90625"/></g></g></g><g fill-opacity="1" fill="#5382dd"><g transform="translate(112.975289, 202.961158)"><g><path d="M 26.125 -35.8125 C 29.332031 -35.8125 32.242188 -35.0625 34.859375 -33.5625 C 37.484375 -32.070312 39.5625 -29.945312 41.09375 -27.1875 C 42.632812 -24.4375 43.40625 -21.242188 43.40625 -17.609375 C 43.40625 -13.972656 42.632812 -10.78125 41.09375 -8.03125 C 39.5625 -5.28125 37.484375 -3.15625 34.859375 -1.65625 C 32.242188 -0.164062 29.332031 0.578125 26.125 0.578125 C 22.007812 0.578125 18.738281 -0.65625 16.3125 -3.125 L 16.3125 12.609375 L 3.96875 12.609375 L 3.96875 -35.21875 L 15.71875 -35.21875 L 15.71875 -31.71875 C 18.019531 -34.445312 21.488281 -35.8125 26.125 -35.8125 Z M 23.53125 -9.234375 C 25.695312 -9.234375 27.472656 -9.976562 28.859375 -11.46875 C 30.242188 -12.96875 30.9375 -15.015625 30.9375 -17.609375 C 30.9375 -20.210938 30.242188 -22.257812 28.859375 -23.75 C 27.472656 -25.25 25.695312 -26 23.53125 -26 C 21.363281 -26 19.582031 -25.25 18.1875 -23.75 C 16.800781 -22.257812 16.109375 -20.210938 16.109375 -17.609375 C 16.109375 -15.015625 16.800781 -12.96875 18.1875 -11.46875 C 19.582031 -9.976562 21.363281 -9.234375 23.53125 -9.234375 Z M 23.53125 -9.234375"/></g></g></g><g fill-opacity="1" fill="#5382dd"><g transform="translate(152.62026, 202.961158)"><g><path d="M 39.96875 -17.546875 C 39.96875 -17.460938 39.898438 -16.441406 39.765625 -14.484375 L 14.171875 -14.484375 C 14.691406 -12.671875 15.695312 -11.273438 17.1875 -10.296875 C 18.6875 -9.328125 20.5625 -8.84375 22.8125 -8.84375 C 24.5 -8.84375 25.957031 -9.078125 27.1875 -9.546875 C 28.425781 -10.023438 29.675781 -10.804688 30.9375 -11.890625 L 37.4375 -5.140625 C 34.007812 -1.328125 29.003906 0.578125 22.421875 0.578125 C 18.304688 0.578125 14.6875 -0.195312 11.5625 -1.75 C 8.445312 -3.3125 6.03125 -5.476562 4.3125 -8.25 C 2.601562 -11.019531 1.75 -14.160156 1.75 -17.671875 C 1.75 -21.140625 2.582031 -24.25 4.25 -27 C 5.925781 -29.75 8.234375 -31.90625 11.171875 -33.46875 C 14.117188 -35.03125 17.4375 -35.8125 21.125 -35.8125 C 24.632812 -35.8125 27.816406 -35.082031 30.671875 -33.625 C 33.535156 -32.175781 35.800781 -30.078125 37.46875 -27.328125 C 39.132812 -24.578125 39.96875 -21.316406 39.96875 -17.546875 Z M 21.1875 -27.03125 C 19.28125 -27.03125 17.6875 -26.488281 16.40625 -25.40625 C 15.125 -24.320312 14.3125 -22.847656 13.96875 -20.984375 L 28.390625 -20.984375 C 28.046875 -22.847656 27.234375 -24.320312 25.953125 -25.40625 C 24.679688 -26.488281 23.09375 -27.03125 21.1875 -27.03125 Z M 21.1875 -27.03125"/></g></g></g><g fill-opacity="1" fill="#5382dd"><g transform="translate(188.820676, 202.961158)"><g><path d="M 18.96875 -35.8125 C 24.820312 -35.8125 29.285156 -34.476562 32.359375 -31.8125 C 35.429688 -29.144531 36.96875 -25.0625 36.96875 -19.5625 L 36.96875 0 L 25.46875 0 L 25.46875 -4.546875 C 23.695312 -1.128906 20.234375 0.578125 15.078125 0.578125 C 12.347656 0.578125 9.984375 0.101562 7.984375 -0.84375 C 5.992188 -1.800781 4.488281 -3.085938 3.46875 -4.703125 C 2.457031 -6.328125 1.953125 -8.179688 1.953125 -10.265625 C 1.953125 -13.597656 3.226562 -16.1875 5.78125 -18.03125 C 8.34375 -19.875 12.285156 -20.796875 17.609375 -20.796875 L 24.625 -20.796875 C 24.40625 -24.523438 21.914062 -26.390625 17.15625 -26.390625 C 15.46875 -26.390625 13.753906 -26.117188 12.015625 -25.578125 C 10.285156 -25.035156 8.816406 -24.285156 7.609375 -23.328125 L 3.4375 -31.71875 C 5.394531 -33.007812 7.769531 -34.015625 10.5625 -34.734375 C 13.351562 -35.453125 16.15625 -35.8125 18.96875 -35.8125 Z M 18.515625 -7.21875 C 19.953125 -7.21875 21.210938 -7.5625 22.296875 -8.25 C 23.378906 -8.945312 24.15625 -9.96875 24.625 -11.3125 L 24.625 -14.359375 L 19.296875 -14.359375 C 15.703125 -14.359375 13.90625 -13.164062 13.90625 -10.78125 C 13.90625 -9.695312 14.316406 -8.832031 15.140625 -8.1875 C 15.960938 -7.539062 17.085938 -7.21875 18.515625 -7.21875 Z M 18.515625 -7.21875"/></g></g></g><g fill-opacity="1" fill="#5382dd"><g transform="translate(224.111213, 202.961158)"><g><path d="M 19.953125 -12.34375 L 16.3125 -8.640625 L 16.3125 0 L 3.96875 0 L 3.96875 -48.21875 L 16.3125 -48.21875 L 16.3125 -22.9375 L 28.921875 -35.21875 L 43.546875 -35.21875 L 28.921875 -20.140625 L 44.78125 0 L 29.828125 0 Z M 19.953125 -12.34375"/></g></g></g><g fill-opacity="1" fill="#5382dd"><g transform="translate(251.98032, 160.111324)"><g><path d="M 15.609375 -3.78125 L 15.609375 0 L 1.734375 0 L 1.734375 -17.296875 L 15.296875 -17.296875 L 15.296875 -13.515625 L 6.578125 -13.515625 L 6.578125 -10.59375 L 14.25 -10.59375 L 14.25 -6.9375 L 6.578125 -6.9375 L 6.578125 -3.78125 Z M 15.609375 -3.78125"/></g></g></g><g fill-opacity="1" fill="#5382dd"><g transform="translate(266.484226, 160.111324)"><g><path d="M 16.359375 -3.875 L 16.359375 0 L 0.859375 0 L 0.859375 -3.0625 L 9.578125 -13.40625 L 1.09375 -13.40625 L 1.09375 -17.296875 L 15.984375 -17.296875 L 15.984375 -14.234375 L 7.265625 -3.875 Z M 16.359375 -3.875"/></g></g></g></svg>